<?xml version="1.0" encoding="UTF-8"?>
<svg id="Layer_1" data-name="Layer 1" xmlns="http://www.w3.org/2000/svg" viewBox="0 0 890.37 635.98">
  <defs>
    <style>
      .cls-1 {
        fill: #f6c3bd;
      }

      .cls-1, .cls-2, .cls-3, .cls-4, .cls-5, .cls-6, .cls-7, .cls-8, .cls-9, .cls-10, .cls-11, .cls-12, .cls-13, .cls-14 {
        stroke-width: 0px;
      }

      .cls-2 {
        fill: #ccefea;
      }

      .cls-3 {
        fill: #fde7c3;
      }

      .cls-4 {
        fill: #fbe1de;
      }

      .cls-5 {
        fill: #66d0c1;
      }

      .cls-6 {
        fill: #fcdba5;
      }

      .cls-7 {
        fill: #196fa3;
      }

      .cls-8 {
        fill: #f2c577;
      }

      .cls-9 {
        fill: #ed887a;
      }

      .cls-10 {
        fill: #44ad99;
      }

      .cls-11 {
        fill: #99dfd6;
      }

      .cls-12 {
        fill: #f2a69b;
      }

      .cls-13 {
        fill: #d9715f;
      }

      .cls-14 {
        fill: #33c0ad;
      }
    </style>
  </defs>
  <path class="cls-7" d="M363.04,405.32c-2.06.18-4.19-.32-6.03-1.58-28.74-19.66-50.01-48.91-59.91-82.36-23.81-80.45,22.27-165.28,102.72-189.08,38.31-11.34,78.86-7.31,114.18,11.32,4.51,2.38,6.23,7.96,3.85,12.46-2.38,4.5-7.96,6.23-12.46,3.85-31.04-16.38-66.67-19.91-100.34-9.95-70.7,20.92-111.19,95.46-90.27,166.16,8.7,29.39,27.39,55.09,52.64,72.37,4.2,2.88,5.28,8.62,2.4,12.82-1.62,2.37-4.14,3.74-6.79,3.98Z"/>
  <g>
    <path class="cls-10" d="M531.5,235.33l.09.21c1.63,3.73,5.43,5.83,9.27,5.49.97-.09,1.94-.33,2.88-.74,4.67-2.05,6.79-7.49,4.74-12.15l-.09-.21c-2.05-4.66-7.48-6.79-12.15-4.74-4.67,2.05-6.79,7.49-4.74,12.15Z"/>
    <path class="cls-10" d="M536.04,206.3l-.18-.25s0,0,0,0c0,0,0-.01-.01-.02h0s0-.02,0-.02c-29.33-40.34-81.18-57.92-129.02-43.76-62.43,18.47-98.18,84.29-79.71,146.72,2.8,9.45,6.74,18.49,11.73,26.89,1.87,3.15,5.34,4.78,8.76,4.48,1.33-.12,2.66-.53,3.88-1.26,4.38-2.6,5.82-8.26,3.22-12.64-4.21-7.08-7.54-14.72-9.9-22.7-15.59-52.67,14.58-108.21,67.25-123.79,40.38-11.95,84.14,2.9,108.89,36.95,0,0,0,.01.01.02,0,0,0,0,0,.01l.06.09c1.97,2.77,5.19,4.12,8.35,3.84,1.58-.14,3.14-.69,4.52-1.67,4.15-2.96,5.12-8.71,2.16-12.86Z"/>
    <path class="cls-14" d="M545.09,244.79c-4.99,1.05-8.17,5.96-7.13,10.95l.04.17c.97,4.62,5.24,7.67,9.83,7.26.36-.03.73-.09,1.09-.16,4.98-1.05,8.17-5.97,7.12-10.95l-.03-.16c-1.05-4.99-5.93-8.15-10.91-7.1Z"/>
    <path class="cls-11" d="M548.49,291.03c-4.96-1.17-9.92,1.9-11.1,6.85l-.08.34c-1.11,4.97,2.02,9.9,6.99,11,.96.21,1.91.27,2.84.19,3.89-.35,7.28-3.16,8.18-7.18l.03-.11c1.17-4.96-1.9-9.93-6.85-11.1Z"/>
    <path class="cls-5" d="M549.32,267.71c-5.08-.08-9.29,3.98-9.37,9.08v.34c-.03,5.09,4.09,9.24,9.18,9.26.3,0,.59-.01.88-.04,4.68-.42,8.37-4.35,8.39-9.15v-.12c.08-5.09-3.98-9.29-9.07-9.37Z"/>
    <path class="cls-2" d="M542.65,313.61c-4.61-2.17-10.1-.19-12.27,4.42l-.06.12c-2.22,4.59-.29,10.1,4.3,12.32,1.56.75,3.22,1.03,4.83.88,3.12-.28,6.03-2.15,7.49-5.18l.14-.29c2.17-4.61.19-10.1-4.42-12.27Z"/>
  </g>
  <g>
    <path class="cls-4" d="M463.87,340.01l-.09.03c-4.79,1.74-7.26,7.03-5.52,11.82,1.46,4.02,5.42,6.4,9.49,6.04.78-.07,1.56-.24,2.33-.52l.34-.13c4.76-1.81,7.16-7.14,5.35-11.9-1.81-4.76-7.14-7.16-11.9-5.35Z"/>
    <path class="cls-12" d="M508.65,312.92c-4.17-2.93-9.92-1.93-12.85,2.24l-.15.22c-2.91,4.18-1.89,9.93,2.29,12.84,1.85,1.29,4.01,1.81,6.1,1.62,2.62-.24,5.12-1.58,6.75-3.91l.11-.16c2.93-4.17,1.93-9.92-2.24-12.85Z"/>
    <path class="cls-1" d="M481.69,330.03l-.14.11c-4.03,3.12-4.74,8.9-1.62,12.93,2,2.58,5.1,3.8,8.13,3.53,1.7-.15,3.38-.78,4.83-1.9l.19-.15c4.01-3.14,4.71-8.94,1.57-12.95-3.14-4.01-8.94-4.72-12.95-1.57Z"/>
    <path class="cls-9" d="M516.46,290.89c-4.85-1.55-10.04,1.14-11.59,5.99l-.05.15c-1.59,4.84,1.05,10.05,5.89,11.64,1.23.4,2.48.53,3.69.42,3.56-.32,6.76-2.7,7.94-6.32l.09-.29c1.55-4.85-1.14-10.04-5.99-11.59Z"/>
    <path class="cls-13" d="M517.54,267.56c-5.09-.08-9.29,3.98-9.37,9.08v.34c-.03,5.09,4.09,9.24,9.18,9.26.3,0,.59-.01.88-.04,4.68-.42,8.37-4.35,8.39-9.15v-.12c.08-5.09-3.98-9.29-9.07-9.37Z"/>
    <path class="cls-13" d="M505.34,256.42s0,0,0,0c0,0,0,0,0,0l.04.13c1.24,4.32,5.36,7.04,9.68,6.65.57-.05,1.15-.16,1.72-.32,4.9-1.4,7.73-6.51,6.33-11.41l-.09-.31s0,0,0-.01c-6.6-22.27-21.48-40.65-41.89-51.74-20.42-11.1-43.95-13.57-66.23-6.98-37.63,11.14-63.25,46.28-62.32,85.47.12,5.09,4.35,9.12,9.44,9,.21,0,.41-.02.61-.03,4.8-.43,8.5-4.52,8.39-9.41-.74-30.87,19.46-58.56,49.11-67.34,17.57-5.2,36.1-3.25,52.19,5.5,16.09,8.74,27.82,23.23,33.02,40.79Z"/>
  </g>
  <g>
    <path class="cls-6" d="M481.09,299.29c-3.87-3.31-9.69-2.86-13,1.01l-.12.14c-3.33,3.86-2.9,9.68.95,13.01,1.97,1.7,4.45,2.42,6.86,2.21,2.3-.21,4.53-1.27,6.15-3.16l.18-.2c3.31-3.87,2.86-9.69-1.01-13.01Z"/>
    <path class="cls-3" d="M452.97,310.94l-.17.06c-4.77,1.78-7.2,7.1-5.41,11.87,1.49,3.98,5.43,6.33,9.46,5.96.8-.07,1.61-.25,2.41-.55l.26-.1c4.76-1.81,7.16-7.14,5.35-11.9-1.81-4.76-7.14-7.16-11.9-5.35Z"/>
    <path class="cls-8" d="M487.22,276.62c-4.99-1.05-9.88,2.14-10.93,7.12l-.03.14c-1.1,4.97,2.05,9.88,7.02,10.98.95.21,1.89.26,2.81.18,3.9-.35,7.3-3.19,8.19-7.21l.06-.28c1.05-4.98-2.14-9.88-7.12-10.93Z"/>
    <path class="cls-8" d="M475.57,265.23s0,.02,0,.03c0,0,0,0,0,.01,1.2,4.37,5.35,7.14,9.71,6.75.54-.05,1.08-.15,1.62-.29,4.91-1.35,7.8-6.42,6.46-11.33-.04-.14-.08-.28-.12-.42,0,0,0-.01,0-.02-4.25-14.32-13.81-26.14-26.94-33.27-13.14-7.14-28.27-8.73-42.6-4.49-12,3.55-22.2,10.78-29.5,20.91-2.98,4.13-2.04,9.9,2.09,12.88,4.13,2.98,9.9,2.04,12.88-2.09,4.89-6.78,11.73-11.63,19.77-14.01,9.61-2.84,19.75-1.78,28.56,3.01,8.81,4.78,15.22,12.71,18.07,22.32Z"/>
  </g>
</svg>